<?xml version="1.0" encoding="utf-8"?>
<svg width="320" height="320" viewBox="0 0 320 320" fill="none" xmlns="http://www.w3.org/2000/svg">
  <g>
    <rect width="320" height="320" fill="#25342F" fill-rule="evenodd" />
    <rect width="80" height="20" fill="#01EB5F" fill-rule="evenodd" transform="translate(120 0)" />
    <rect width="80" height="20" fill="#01EB5F" fill-rule="evenodd" transform="translate(120 200)" />
    <rect width="80" height="20" fill="#01EB5F" fill-rule="evenodd" transform="translate(20 100)" />
    <rect width="100" height="20" fill="#01EB5F" fill-rule="evenodd" transform="translate(20 80)" />
    <rect width="120" height="20" fill="#01EB5F" fill-rule="evenodd" transform="translate(100 160)" />
    <rect width="100" height="20" fill="#01EB5F" fill-rule="evenodd" transform="translate(200 80)" />
    <rect width="100" height="20" fill="#01EB5F" fill-rule="evenodd" transform="translate(20 140)" />
    <rect width="100" height="20" fill="#01EB5F" fill-rule="evenodd" transform="translate(200 140)" />
    <rect width="80" height="20" fill="#01EB5F" fill-rule="evenodd" transform="translate(120 60)" />
    <rect width="80" height="40" fill="#01EB5F" fill-rule="evenodd" transform="translate(120 100)" />
    <rect width="80" height="20" fill="#01EB5F" fill-rule="evenodd" transform="translate(220 120)" />
    <rect width="40" height="20" fill="#01EB5F" fill-rule="evenodd" transform="translate(220 100)" />
    <rect width="20" height="20" fill="#01EB5F" fill-rule="evenodd" transform="translate(280 100)" />
    <rect width="60" height="20" fill="#01EB5F" fill-rule="evenodd" transform="translate(160 40)" />
    <rect width="60" height="20" fill="#01EB5F" fill-rule="evenodd" transform="translate(40 60)" />
    <rect width="60" height="20" fill="#01EB5F" fill-rule="evenodd" transform="translate(100 180)" />
    <rect width="60" height="100" fill="#01EB5F" fill-rule="evenodd" transform="translate(40 200)" />
    <rect width="60" height="80" fill="#01EB5F" fill-rule="evenodd" transform="translate(140 240)" />
    <rect width="20" height="60" fill="#01EB5F" fill-rule="evenodd" transform="translate(20 220)" />
    <rect width="20" height="60" fill="#01EB5F" fill-rule="evenodd" transform="translate(100 220)" />
    <rect width="60" height="20" fill="#01EB5F" fill-rule="evenodd" transform="translate(220 60)" />
    <rect width="40" height="20" fill="#01EB5F" fill-rule="evenodd" transform="translate(100 40)" />
    <rect width="120" height="20" fill="#01EB5F" fill-rule="evenodd" transform="translate(100 20)" />
    <rect width="40" height="20" fill="#01EB5F" fill-rule="evenodd" transform="translate(180 180)" />
    <rect width="40" height="20" fill="#01EB5F" fill-rule="evenodd" transform="translate(60 120)" />
    <rect width="40" height="20" fill="#01EB5F" fill-rule="evenodd" transform="translate(40 160)" />
    <rect width="40" height="20" fill="#01EB5F" fill-rule="evenodd" transform="translate(240 160)" />
    <rect width="20" height="20" fill="#25342F" fill-rule="evenodd" transform="translate(80 220)" />
    <rect width="20" height="20" fill="#25342F" fill-rule="evenodd" transform="translate(60 240)" />
    <rect width="20" height="20" fill="#25342F" fill-rule="evenodd" transform="translate(140 300)" />
    <rect width="20" height="20" fill="#25342F" fill-rule="evenodd" transform="translate(160 240)" />
    <rect width="100" height="20" fill="#01EB5F" fill-rule="evenodd" transform="translate(200 240)" />
    <rect width="100" height="20" fill="#01EB5F" fill-rule="evenodd" transform="translate(200 260)" />
    <rect width="20" height="20" fill="#25342F" fill-rule="evenodd" transform="translate(180 260)" />
    <rect width="20" height="20" fill="#01EB5F" fill-rule="evenodd" transform="translate(20 120)" />
    <rect width="60" height="20" fill="#01EB5F" fill-rule="evenodd" transform="translate(220 280)" />
    <rect width="20" height="20" fill="#25342F" fill-rule="evenodd" transform="translate(260 240)" />
    <rect width="20" height="20" fill="#01EB5F" fill-rule="evenodd" transform="translate(200 220)" />
    <rect width="40" height="20" fill="#01EB5F" fill-rule="evenodd" transform="translate(260 220)" />
    <rect width="60" height="20" fill="#01EB5F" fill-rule="evenodd" transform="translate(220 200)" />
  </g>
</svg>